<?xml version="1.0" encoding="iso-8859-1"?>
<!-- Uploaded to: SVG Repo, www.svgrepo.com, Generator: SVG Repo Mixer Tools -->
<svg fill="#000000" height="800px" width="800px" version="1.1" id="Layer_1" xmlns="http://www.w3.org/2000/svg" xmlns:xlink="http://www.w3.org/1999/xlink" 
	 viewBox="0 0 512.001 512.001" xml:space="preserve">
<g>
	<g>
		<g>
			<path d="M447.34,310.65l-0.039-0.427c-3.866-37.54-35.275-65.849-73.061-65.849h-23.721
				c10.546-16.992,16.647-37.019,16.647-58.447v-5.477c14.432-3.44,25.2-16.435,25.2-31.905c0-15.47-10.768-28.465-25.2-31.905
				v-5.476c0-58.005-44.659-105.768-101.398-110.73c-0.01-0.001-0.021-0.002-0.031-0.003c-1.547-0.135-3.101-0.24-4.666-0.31
				c-0.166-0.008-0.334-0.012-0.5-0.019C259.055,0.04,257.533,0,256.003,0c-1.298,0-2.587,0.03-3.875,0.075
				c-0.292,0.01-0.581,0.021-0.873,0.033c-1.289,0.055-2.572,0.124-3.849,0.222c-0.014,0.001-0.028,0.001-0.042,0.002
				c-0.064,0.005-0.128,0.013-0.193,0.018c-1.151,0.091-2.296,0.204-3.437,0.33c-0.381,0.042-0.761,0.085-1.143,0.131
				c-1.01,0.122-2.016,0.255-3.017,0.405c-0.542,0.08-1.083,0.169-1.623,0.258c-0.721,0.119-1.441,0.24-2.156,0.373
				c-0.63,0.116-1.257,0.236-1.884,0.362c-0.403,0.082-0.804,0.169-1.204,0.255c-1.438,0.306-2.866,0.64-4.287,1.002
				c-0.076,0.019-0.152,0.037-0.228,0.058C212.849,7.47,198.506,14.665,186,24.816c-4.169,3.384-8.036,7.047-11.601,10.95
				c-18.335,19.829-29.558,46.326-29.558,75.398v5.476c-14.432,3.44-25.2,16.435-25.2,31.905c0,15.471,10.768,28.465,25.2,31.905
				v5.477c0,21.428,6.1,41.455,16.647,58.447h-23.722c-37.787,0-69.195,28.309-73.069,65.938L46.549,512.001h61.065h296.773h61.064
				L447.34,310.65z M367.166,132.679c5.906,2.842,9.992,8.885,9.992,15.867c0,6.98-4.086,13.025-9.992,15.867V132.679z
				 M144.837,164.413c-5.906-2.842-9.992-8.887-9.992-15.867c0-6.98,4.086-13.025,9.992-15.867V164.413z M186.179,45.416
				c0.013-0.014,0.025-0.027,0.039-0.042c0.721-0.775,1.47-1.527,2.219-2.278c12.879-12.784,29.352-21.948,47.753-25.826
				c0.217-0.046,0.432-0.094,0.649-0.138c0.596-0.122,1.195-0.235,1.796-0.345c0.518-0.094,1.037-0.184,1.557-0.27
				c0.601-0.1,1.203-0.197,1.808-0.285c0.788-0.115,1.578-0.222,2.369-0.317c0.358-0.044,0.716-0.084,1.075-0.124
				c0.947-0.103,1.896-0.198,2.848-0.273c0.096-0.008,0.192-0.018,0.289-0.025c1.098-0.084,2.202-0.144,3.307-0.191
				c0.256-0.011,0.513-0.02,0.771-0.029c1.117-0.039,2.235-0.065,3.344-0.065c1.316,0,2.628,0.032,3.938,0.087
				c0.142,0.006,0.285,0.01,0.427,0.016c20.944,0.963,40.995,8.83,56.876,22.402c15.327,13.099,26.19,30.922,30.975,50.643
				c-14.978,7.259-30.344,10.797-46.804,10.797c-30.303,0-58.602-12.003-79.683-33.799l-5.466-5.651l-5.466,5.651
				c-14.014,14.489-30.265,24.418-48.423,29.607C165.426,75.979,173.628,58.928,186.179,45.416z M160.044,185.925v-4.576h0.001
				v-65.608v-4.499c21.01-4.758,39.88-14.809,56.234-29.972c23.289,21.397,53.236,33.092,85.135,33.092
				c17.65,0,34.174-3.565,50.24-10.836c0.2,2.52,0.304,5.066,0.304,7.637v4.577v65.608v4.578c0,45.355-31.633,83.459-73.994,93.416
				c-0.139,0.032-0.277,0.067-0.415,0.099c-0.542,0.125-1.088,0.241-1.633,0.357c-0.297,0.063-0.594,0.127-0.893,0.188
				c-0.461,0.093-0.925,0.18-1.388,0.267c-0.386,0.072-0.773,0.143-1.161,0.21c-0.411,0.071-0.823,0.139-1.235,0.205
				c-0.442,0.071-0.884,0.138-1.327,0.203c-0.378,0.055-0.756,0.108-1.136,0.159c-0.481,0.064-0.963,0.124-1.445,0.18
				c-0.355,0.042-0.709,0.084-1.065,0.122c-0.51,0.055-1.021,0.102-1.533,0.148c-0.336,0.03-0.67,0.063-1.007,0.089
				c-0.538,0.043-1.078,0.078-1.618,0.112c-0.315,0.02-0.631,0.044-0.947,0.06c-0.59,0.031-1.183,0.053-1.774,0.074
				c-0.267,0.009-0.532,0.023-0.8,0.03c-0.861,0.023-1.723,0.035-2.586,0.035c-0.864,0-1.726-0.013-2.586-0.035
				c-0.268-0.007-0.533-0.021-0.801-0.03c-0.592-0.02-1.183-0.042-1.773-0.074c-0.317-0.017-0.633-0.041-0.949-0.061
				c-0.539-0.034-1.078-0.069-1.616-0.112c-0.338-0.027-0.673-0.06-1.009-0.09c-0.511-0.047-1.021-0.094-1.53-0.148
				c-0.357-0.039-0.712-0.08-1.068-0.123c-0.482-0.057-0.962-0.116-1.442-0.179c-0.381-0.051-0.76-0.104-1.141-0.16
				c-0.441-0.064-0.881-0.132-1.321-0.202c-0.415-0.067-0.829-0.135-1.242-0.206c-0.384-0.067-0.768-0.137-1.152-0.209
				c-0.466-0.087-0.934-0.174-1.398-0.269c-0.294-0.059-0.586-0.123-0.88-0.185c-0.55-0.117-1.1-0.233-1.648-0.36
				c-0.133-0.03-0.264-0.064-0.396-0.094C191.683,269.392,160.044,231.285,160.044,185.925z M205.646,321.276v15.208H389.18v160.309
				H122.823V336.484h62.545v-15.208h-77.753v175.517H63.188l16.62-184.764l0.022-0.248c3.064-29.758,27.97-52.199,57.933-52.199
				h34.98c14.837,16.768,34.117,28.472,55.36,33.961c0.103,0.026,0.206,0.053,0.309,0.08c0.738,0.189,1.477,0.37,2.22,0.543
				c0.229,0.054,0.459,0.105,0.689,0.158c0.644,0.146,1.29,0.288,1.936,0.423c0.33,0.069,0.66,0.134,0.991,0.2
				c0.568,0.113,1.136,0.224,1.705,0.328c0.413,0.076,0.827,0.146,1.242,0.217c0.505,0.086,1.009,0.172,1.516,0.251
				c0.48,0.075,0.962,0.143,1.444,0.213c0.453,0.065,0.906,0.132,1.361,0.191c0.534,0.07,1.072,0.131,1.609,0.194
				c0.412,0.048,0.823,0.098,1.237,0.142c0.581,0.061,1.164,0.112,1.747,0.163c0.377,0.033,0.753,0.071,1.131,0.1
				c0.622,0.049,1.246,0.086,1.87,0.125c0.346,0.021,0.689,0.048,1.035,0.066c0.677,0.035,1.358,0.058,2.038,0.081
				c0.296,0.01,0.59,0.026,0.887,0.033c0.974,0.025,1.953,0.039,2.933,0.039c0.98,0,1.959-0.013,2.933-0.039
				c0.296-0.008,0.591-0.023,0.887-0.033c0.68-0.023,1.361-0.046,2.038-0.081c0.346-0.018,0.69-0.045,1.035-0.066
				c0.625-0.039,1.248-0.076,1.87-0.125c0.378-0.029,0.754-0.068,1.131-0.1c0.583-0.052,1.166-0.102,1.747-0.163
				c0.413-0.044,0.824-0.094,1.237-0.142c0.537-0.062,1.075-0.124,1.609-0.194c0.454-0.059,0.907-0.126,1.361-0.191
				c0.482-0.069,0.964-0.137,1.444-0.213c0.506-0.079,1.01-0.165,1.515-0.251c0.415-0.071,0.83-0.141,1.243-0.217
				c0.57-0.103,1.137-0.215,1.704-0.328c0.331-0.066,0.661-0.131,0.991-0.2c0.648-0.135,1.293-0.277,1.936-0.423
				c0.23-0.053,0.46-0.104,0.689-0.158c0.742-0.173,1.482-0.355,2.219-0.542c0.103-0.026,0.207-0.053,0.31-0.08
				c21.241-5.489,40.523-17.193,55.359-33.961h34.98c29.963,0,54.868,22.441,57.925,52.109l16.648,185.101h-44.426V321.276H205.646z
				"/>
			<path d="M256.002,454.857c21.073,0,38.218-17.144,38.218-38.219c0-21.073-17.144-38.218-38.218-38.218
				c-21.074,0-38.219,17.144-38.219,38.218C217.783,437.712,234.928,454.857,256.002,454.857z M256.002,393.629
				c12.688,0,23.01,10.322,23.01,23.01c0,12.689-10.322,23.011-23.01,23.011c-12.688,0-23.011-10.322-23.011-23.011
				C232.991,403.951,243.314,393.629,256.002,393.629z"/>
			<path d="M293.78,454.417l10.754,10.753c26.76-26.76,26.76-70.302,0-97.063L293.78,378.86
				C314.61,399.692,314.61,433.586,293.78,454.417z"/>
		</g>
	</g>
</g>
</svg>