<svg xmlns="http://www.w3.org/2000/svg" xmlns:xlink="http://www.w3.org/1999/xlink" version="1.1" x="0px" y="0px" viewBox="0 0 66 82.5" enable-background="new 0 0 66 66" xml:space="preserve"><g><g><g><path d="M25.9,35.9V55H12.2v-1.8c0-0.4-0.2-0.7-0.5-0.9l-3.9-2.2V45l2.4-1.4v2.5c0,0.6,0.4,1,1,1c0.6,0,1-0.4,1-1V27.5     c0-0.4,0.4-1,1-1c0.5,0,1,0.4,1,1v12.9c0,0.6,0.4,1,1,1c0.3,0,0.5-0.1,0.7-0.3c0.2-0.2,0.3-0.4,0.3-0.7v-4.5c0-0.5,0.4-1,1-1     c0.5,0,1,0.4,1,1v4.5c0,0.6,0.4,1,1,1c0.6,0,1-0.4,1-1v-4.5c0-0.5,0.4-1,1-1c0.5,0,1,0.4,1,1v4.5c0,0.6,0.4,1,1,1     c0.5,0,1-0.4,1-1v-4.5c0-0.5,0.4-1,1-1C25.5,34.9,25.9,35.4,25.9,35.9z"/></g><g><path d="M25.9,57v5c0,1.3-1,2.3-2.3,2.3l-9.1,0c-1.3,0-2.3-1-2.3-2.3v-5H25.9z"/></g></g><g><g><path d="M18.8,14.7v14.6h-2.7v-1.8c0-1.8-1.5-3-2.9-3c-1.7,0-3,1.4-3,3v1.8H7.6V14.7H18.8z"/></g><g><rect x="43.7" y="13.4" width="2.8" height="2.8"/></g><g><rect x="35.1" y="13.4" width="2.8" height="2.8"/></g><g><path d="M31.7,8.7v12.2h26.8V8.7H31.7z M39.8,17.2c0,0.6-0.5,1-1,1h-4.8c-0.6,0-1-0.4-1-1v-4.8c0-0.6,0.4-1,1-1h4.8     c0.5,0,1,0.4,1,1V17.2z M48.5,17.2c0,0.6-0.5,1-1,1h-4.8c-0.6,0-1-0.4-1-1v-4.8c0-0.6,0.4-1,1-1h4.8c0.5,0,1,0.4,1,1V17.2z      M57.1,17.2c0,0.6-0.4,1-1,1h-4.8c-0.5,0-1-0.4-1-1v-4.8c0-0.6,0.5-1,1-1h4.8c0.6,0,1,0.4,1,1V17.2z"/></g><g><path d="M62.5,1.7h-59c-1.6,0-3,1.3-3,3v51.6c0,1.6,1.3,3,3,3h6.7v-5.5l-4.4-2.5v-7.4l4.4-2.7v-9.9H6.6c-0.5,0-1-0.5-1-1V13.7     c0,0,0,0,0,0v-6c0-0.1,0-0.3,0.1-0.4C5.8,7,6.2,6.7,6.6,6.7h13.2c0.6,0,1,0.4,1,1v22.5c0,0.5-0.4,1-1,1h-3.7v1.8     c0.3-0.1,0.6-0.2,1-0.2c0.8,0,1.4,0.3,2,0.7c0.5-0.5,1.2-0.7,2-0.7s1.4,0.3,2,0.8c0.5-0.5,1.2-0.8,2-0.8c1.6,0,3,1.3,3,3v23.4     h34.6c1.6,0,3-1.3,3-3V4.7C65.5,3.1,64.2,1.7,62.5,1.7z M38.3,52.2h-5.4c-0.6,0-1-0.5-1-1c0-0.6,0.4-1,1-1h5.4c0.6,0,1,0.4,1,1     C39.3,51.8,38.8,52.2,38.3,52.2z M38.3,41.8h-5.4c-0.6,0-1-0.4-1-1c0-0.6,0.4-1,1-1h5.4c0.6,0,1,0.4,1,1     C39.3,41.3,38.8,41.8,38.3,41.8z M38.3,31.3h-5.4c-0.6,0-1-0.5-1-1c0-0.6,0.4-1,1-1h5.4c0.6,0,1,0.4,1,1     C39.3,30.8,38.8,31.3,38.3,31.3z M47.8,52.2h-5.4c-0.5,0-1-0.5-1-1c0-0.6,0.5-1,1-1h5.4c0.6,0,1,0.4,1,1     C48.8,51.8,48.4,52.2,47.8,52.2z M47.8,41.8h-5.4c-0.5,0-1-0.4-1-1c0-0.6,0.5-1,1-1h5.4c0.6,0,1,0.4,1,1     C48.8,41.3,48.4,41.8,47.8,41.8z M47.8,31.3h-5.4c-0.5,0-1-0.5-1-1c0-0.6,0.5-1,1-1h5.4c0.6,0,1,0.4,1,1     C48.8,30.8,48.4,31.3,47.8,31.3z M57.3,52.2h-5.4c-0.5,0-1-0.5-1-1c0-0.6,0.5-1,1-1h5.4c0.6,0,1,0.4,1,1     C58.3,51.8,57.9,52.2,57.3,52.2z M57.3,41.8h-5.4c-0.5,0-1-0.4-1-1c0-0.6,0.5-1,1-1h5.4c0.6,0,1,0.4,1,1     C58.3,41.3,57.9,41.8,57.3,41.8z M57.3,31.3h-5.4c-0.5,0-1-0.5-1-1c0-0.6,0.5-1,1-1h5.4c0.6,0,1,0.4,1,1     C58.3,30.8,57.9,31.3,57.3,31.3z M60.5,21.9c0,0.6-0.5,1-1,1H30.7c-0.6,0-1-0.4-1-1V7.7c0-0.6,0.4-1,1-1h28.8c0.5,0,1,0.4,1,1     V21.9z"/></g><g><rect x="7.6" y="8.7" width="11.2" height="4"/></g><g><rect x="52.4" y="13.4" width="2.8" height="2.8"/></g></g></g><text x="0" y="81" fill="#000000" font-size="5px" font-weight="bold" font-family="'Helvetica Neue', Helvetica, Arial-Unicode, Arial, Sans-serif">Created by ProSymbols</text><text x="0" y="86" fill="#000000" font-size="5px" font-weight="bold" font-family="'Helvetica Neue', Helvetica, Arial-Unicode, Arial, Sans-serif">from the Noun Project</text></svg>